<?xml version="1.0" encoding="UTF-8"?>
<svg width="12px" height="18px" viewBox="0 0 12 18" version="1.1" xmlns="http://www.w3.org/2000/svg" xmlns:xlink="http://www.w3.org/1999/xlink">
    <!-- Generator: Sketch 48.2 (47327) - http://www.bohemiancoding.com/sketch -->
    <title>icon_map</title>
    <desc>Created with Sketch.</desc>
    <defs></defs>
    <g id="snowtrip-info" stroke="none" stroke-width="1" fill="none" fill-rule="evenodd" transform="translate(-298.000000, -272.000000)">
        <g id="header" transform="translate(298.000000, 220.000000)" fill="#343B46" fill-rule="nonzero">
            <path d="M6.43868788,68.1360413 C7.03369934,67.487423 7.7118755,66.6013437 8.33597569,65.6394749 C9.85369616,63.3003505 10.8,61.5417419 10.8,59.2 C10.8,55.5025203 8.77696004,53.2 6,53.2 C3.22303996,53.2 1.2,55.5025203 1.2,59.2 C1.2,61.5417419 2.14630384,63.3003505 3.66402431,65.6394749 C4.2881245,66.6013437 4.96630066,67.487423 5.56131212,68.1360413 C5.72107823,68.3102013 5.86931742,68.4609211 6,68.5834105 C6.13068258,68.4609211 6.27892177,68.3102013 6.43868788,68.1360413 Z M6,70 C5.0862915,70 0,64.3137085 0,59.2 C2.08749558e-16,54.0862915 3.2862915,52 6,52 C8.7137085,52 12,54.0862915 12,59.2 C12,64.3137085 6.9137085,70 6,70 Z M6,59.2 C6.6627417,59.2 7.2,58.6627417 7.2,58 C7.2,57.3372583 6.6627417,56.8 6,56.8 C5.3372583,56.8 4.8,57.3372583 4.8,58 C4.8,58.6627417 5.3372583,59.2 6,59.2 Z" id="icon_map"></path>
        </g>
    </g>
</svg>