<?xml version="1.0" encoding="UTF-8"?>
<svg width="18px" height="18px" viewBox="0 0 18 18" version="1.1" xmlns="http://www.w3.org/2000/svg" xmlns:xlink="http://www.w3.org/1999/xlink">
    <!-- Generator: Sketch 48.2 (47327) - http://www.bohemiancoding.com/sketch -->
    <title>icon_calendar</title>
    <desc>Created with Sketch.</desc>
    <defs></defs>
    <g id="snowtrip-info" stroke="none" stroke-width="1" fill="none" fill-rule="evenodd" transform="translate(-514.000000, -272.000000)">
        <g id="header" transform="translate(298.000000, 220.000000)" fill="#343B46">
            <path d="M230.4,54.4197501 C232.421329,54.6204399 234,56.3258608 234,58.4 L234,66 C234,68.209139 232.209139,70 230,70 L220,70 C217.790861,70 216,68.209139 216,66 L216,58.4 C216,56.3258608 217.578671,54.6204399 219.6,54.4197501 L219.6,52 L220.8,52 L220.8,54.4 L224.4,54.4 L224.4,52 L225.6,52 L225.6,54.4 L229.2,54.4 L229.2,52 L230.4,52 L230.4,54.4197501 Z M230.4,55.6600109 L230.4,56.8 L229.2,56.8 L229.2,55.6 L225.6,55.6 L225.6,56.8 L224.4,56.8 L224.4,55.6 L220.8,55.6 L220.8,56.8 L219.6,56.8 L219.6,55.6600109 C218.230656,55.9379731 217.2,57.1486253 217.2,58.6 L217.2,65.8 C217.2,67.4568542 218.543146,68.8 220.2,68.8 L229.8,68.8 C231.456854,68.8 232.8,67.4568542 232.8,65.8 L232.8,58.6 C232.8,57.1486253 231.769344,55.9379731 230.4,55.6600109 Z" id="icon_calendar"></path>
        </g>
    </g>
</svg>