<?xml version="1.0" encoding="UTF-8"?>
<svg width="113px" height="30px" viewBox="0 0 113 30" version="1.1" xmlns="http://www.w3.org/2000/svg" xmlns:xlink="http://www.w3.org/1999/xlink">
    <!-- Generator: Sketch 48.2 (47327) - http://www.bohemiancoding.com/sketch -->
    <title>redlight</title>
    <desc>Created with Sketch.</desc>
    <defs></defs>
    <g id="snowtrip-info" stroke="none" stroke-width="1" fill="none" fill-rule="evenodd" transform="translate(-544.000000, -150.000000)">
        <path d="M553.355,158.76 C553.895,158.76 554.375,158.85 554.825,159 L554.825,163.56 L553.595,163.56 C552.425,163.56 551.525,163.83 550.925,164.4 C550.325,164.97 550.025,165.9 550.025,167.16 L550.025,174 L544.865,174 L544.865,159 L549.575,159 L549.575,160.59 C550.535,159.36 551.795,158.76 553.355,158.76 Z M571.145,165.75 C571.145,166.65 571.025,167.49 570.815,168.3 L561.215,168.3 C561.785,169.44 562.895,170.01 564.575,170.01 C565.925,170.01 567.215,169.62 568.505,168.84 L570.365,172.35 C568.595,173.7 566.585,174.36 564.395,174.36 C561.935,174.36 559.925,173.61 558.335,172.11 C556.745,170.64 555.965,168.75 555.965,166.5 C555.965,164.28 556.745,162.42 558.275,160.89 C559.805,159.39 561.725,158.64 563.975,158.64 C566.135,158.64 567.875,159.33 569.165,160.71 C570.485,162.09 571.145,163.77 571.145,165.75 Z M563.765,162.69 C563.135,162.69 562.565,162.87 562.085,163.26 C561.575,163.65 561.245,164.22 561.035,164.94 L566.255,164.94 C566.225,164.25 565.985,163.71 565.505,163.29 C565.025,162.9 564.455,162.69 563.765,162.69 Z M584.045,151.5 L589.205,151.5 L589.205,174 L584.495,174 L584.495,172.44 C583.565,173.73 582.125,174.36 580.205,174.36 C578.105,174.36 576.395,173.64 575.045,172.17 C573.695,170.7 573.005,168.84 573.005,166.53 C573.005,164.22 573.695,162.33 575.045,160.86 C576.395,159.39 578.105,158.64 580.205,158.64 C581.795,158.64 583.055,159.09 584.045,160.02 L584.045,151.5 Z M581.225,169.68 C582.035,169.68 582.725,169.41 583.295,168.87 C583.865,168.33 584.135,167.55 584.135,166.53 C584.135,165.51 583.865,164.73 583.295,164.16 C582.725,163.59 582.035,163.32 581.225,163.32 C580.415,163.32 579.725,163.59 579.155,164.16 C578.585,164.73 578.285,165.51 578.285,166.5 C578.285,167.49 578.585,168.27 579.155,168.84 C579.725,169.41 580.415,169.68 581.225,169.68 Z M597.725,151.5 L597.725,174 L592.565,174 L592.565,151.5 L597.725,151.5 Z M603.635,150.63 C604.505,150.63 605.255,150.93 605.885,151.5 C606.515,152.1 606.815,152.82 606.815,153.69 C606.815,154.53 606.515,155.25 605.885,155.82 C605.255,156.42 604.505,156.72 603.635,156.72 C602.765,156.72 602.015,156.42 601.385,155.85 C600.785,155.28 600.485,154.56 600.485,153.69 C600.485,152.82 600.785,152.1 601.385,151.5 C602.015,150.93 602.765,150.63 603.635,150.63 Z M606.245,159 L606.245,174 L601.085,174 L601.085,159 L606.245,159 Z M620.345,159 L625.055,159 L625.055,172.17 C625.055,174.72 624.335,176.64 622.865,177.9 C621.395,179.13 619.445,179.76 617.015,179.76 C614.105,179.76 611.585,178.86 609.455,177.06 L612.065,173.43 C613.565,174.57 615.035,175.14 616.475,175.14 C617.465,175.14 618.275,174.93 618.905,174.48 C619.565,174.03 619.895,173.37 619.895,172.5 L619.895,171.96 C618.965,172.89 617.645,173.34 615.965,173.34 C613.895,173.34 612.185,172.68 610.835,171.33 C609.515,169.98 608.855,168.21 608.855,165.96 C608.855,163.71 609.515,161.94 610.865,160.62 C612.215,159.3 613.895,158.64 615.965,158.64 C617.945,158.64 619.415,159.27 620.345,160.53 L620.345,159 Z M617.075,169.08 C617.885,169.08 618.575,168.78 619.145,168.21 C619.715,167.64 619.985,166.86 619.985,165.87 C619.985,164.88 619.715,164.13 619.145,163.62 C618.575,163.14 617.885,162.9 617.075,162.9 C616.265,162.9 615.575,163.17 615.005,163.68 C614.435,164.19 614.135,164.94 614.135,165.9 C614.135,166.89 614.435,167.64 615.005,168.21 C615.575,168.78 616.265,169.08 617.075,169.08 Z M637.475,158.64 C639.155,158.64 640.505,159.21 641.555,160.32 C642.575,161.43 643.085,162.93 643.085,164.76 L643.085,174 L637.925,174 L637.925,165.51 C637.925,164.85 637.715,164.31 637.325,163.89 C636.905,163.5 636.365,163.29 635.735,163.29 C635.105,163.29 634.565,163.5 634.175,163.89 C633.785,164.31 633.575,164.85 633.575,165.51 L633.575,174 L628.415,174 L628.415,151.5 L633.575,151.5 L633.575,160.05 C634.625,159.12 635.945,158.64 637.475,158.64 Z M654.965,169.74 C655.145,169.74 655.775,169.71 656.855,169.68 L656.855,174 C655.865,174.24 654.845,174.36 653.825,174.36 C651.695,174.36 650.075,173.85 648.935,172.83 C647.795,171.81 647.225,170.28 647.225,168.27 L647.225,163.32 L644.945,163.32 L644.945,159 L647.225,159 L647.225,155.4 L652.385,155.4 L652.385,159 L656.405,159 L656.405,163.32 L652.385,163.32 L652.385,167.76 C652.385,168.48 652.595,168.99 652.985,169.29 C653.375,169.59 654.035,169.74 654.965,169.74 Z" id="redlight" fill="#343B46"></path>
    </g>
</svg>